<svg id="Layer_1" data-name="Layer 1" xmlns="http://www.w3.org/2000/svg" viewBox="0 0 1920 1080"><defs><style>.cls-1{fill:#e6e6e6;}.cls-2,.cls-3{fill:none;stroke:#919191;stroke-miterlimit:10;}.cls-2{stroke-dasharray:49.85 29.91;}.cls-3{stroke-dasharray:50.1 30.06;}</style></defs><title>BG Miss Albini</title><path class="cls-1" d="M1769.56,378c-116,64.4-623.86,235.23-775,189-210.25-64.3,57.83-203.25-100.42-203.33-76.3,0-77.23,43-263.75,94.58-75,20.77-143,39.57-230.23,39.2-60.39-.26-188.88-.81-283.43-70.66-169-124.8-161-420.22-56-612.2,22.08-40.38,64.34-117.66,153.84-178.08,298-201.19,588.31,143.41,1131.08,39.1,213.09-41,635.74,94.5,673.46,125.09C2143.63-98.26,1870.27,322.08,1769.56,378Z"/><path class="cls-2" d="M1774.27,336.69c-116,64.4-623.86,235.23-775,189C789,461.4,1057.1,322.44,898.85,322.37c-76.3,0-77.23,43-263.75,94.58-75,20.77-143,39.57-230.23,39.2-60.39-.26-188.88-.81-283.43-70.66-169-124.8-161-420.22-56-612.2,22.08-40.38,64.34-117.66,153.84-178.08C517.26-606,807.57-261.38,1350.34-365.7c213.09-40.95,635.74,94.51,673.46,125.1C2148.34-139.56,1875,280.78,1774.27,336.69Z"/><path class="cls-1" d="M1889,1431.19c-99.31,76.15-51.65,92.26-152.38,147.52-116,63.64-623.92,232.51-775.05,186.9-210.23-63.45,57.88-200.77-100.36-200.8-76.3,0-77.24,42.46-263.77,93.49-75.05,20.53-143,39.12-230.25,38.78-60.38-.24-188.87-.75-283.41-69.71-168.92-123.23-160.87-415-55.84-604.66,22.09-39.89,64.37-116.24,153.88-175.94C479.9,648,770.11,988.25,1312.9,885.07c213.11-40.51,635.72,93.17,673.42,123.38C2110.84,1108.2,2051.28,1306.77,1889,1431.19Z"/><path class="cls-3" d="M1893.74,1390.39c-99.31,76.15-51.65,92.27-152.38,147.52-116,63.64-623.92,232.51-775,186.9C756.09,1661.36,1024.19,1524,866,1524c-76.3,0-77.24,42.46-263.77,93.49-75,20.53-143,39.13-230.25,38.78-60.38-.24-188.87-.75-283.41-69.71-168.92-123.22-160.87-415-55.84-604.66C54.77,942,97.05,865.67,186.56,806c298.06-198.79,588.27,141.49,1131.06,38.31,213.11-40.51,635.72,93.16,673.42,123.37C2115.56,1067.41,2056,1266,1893.74,1390.39Z"/></svg>