<?xml version="1.0" encoding="UTF-8" standalone="no"?>
<svg
   xmlns:dc="http://purl.org/dc/elements/1.1/"
   xmlns:cc="http://creativecommons.org/ns#"
   xmlns:rdf="http://www.w3.org/1999/02/22-rdf-syntax-ns#"
   xmlns:svg="http://www.w3.org/2000/svg"
   xmlns="http://www.w3.org/2000/svg"
   xmlns:sodipodi="http://sodipodi.sourceforge.net/DTD/sodipodi-0.dtd"
   xmlns:inkscape="http://www.inkscape.org/namespaces/inkscape"
   enable-background="new 0 0 32 32"
   height="32px"
   id="Слой_1"
   version="1.1"
   viewBox="0 0 32 32"
   width="32px"
   xml:space="preserve"
   sodipodi:docname="iconfinder_SignOut_1031505.svg"
   inkscape:version="0.92.4 5da689c313, 2019-01-14"><metadata
     id="metadata24"><rdf:RDF><cc:Work
         rdf:about=""><dc:format>image/svg+xml</dc:format><dc:type
           rdf:resource="http://purl.org/dc/dcmitype/StillImage" /></cc:Work></rdf:RDF></metadata><defs
     id="defs22" /><sodipodi:namedview
     pagecolor="#ffffff"
     bordercolor="#666666"
     borderopacity="1"
     objecttolerance="10"
     gridtolerance="10"
     guidetolerance="10"
     inkscape:pageopacity="0"
     inkscape:pageshadow="2"
     inkscape:window-width="1920"
     inkscape:window-height="1019"
     id="namedview20"
     showgrid="false"
     inkscape:zoom="24.775391"
     inkscape:cx="8.2503745"
     inkscape:cy="16"
     inkscape:window-x="0"
     inkscape:window-y="0"
     inkscape:window-maximized="1"
     inkscape:current-layer="Sign_Out" /><g
     id="Sign_Out"
     style="fill:#000000;fill-opacity:1"><path
       d="M15,30H2V2h13c0.552,0,1-0.448,1-1s-0.448-1-1-1H1C0.448,0,0,0.448,0,1v30c0,0.552,0.448,1,1,1h14   c0.552,0,1-0.448,1-1S15.552,30,15,30z"
       fill="#121313"
       id="path2"
       style="fill:#0078fa;fill-opacity:1" /><path
       d="M31.71,15.302l-6.9-6.999c-0.391-0.395-1.024-0.394-1.414,0c-0.391,0.394-0.391,1.034,0,1.428l5.2,5.275   H8.003c-0.552,0-1,0.452-1,1.01c0,0.558,0.448,1.01,1,1.01h20.593l-5.2,5.275c-0.391,0.395-0.391,1.034,0,1.428   c0.391,0.395,1.024,0.395,1.414,0l6.899-6.999C32.095,16.341,32.099,15.69,31.71,15.302z"
       fill="#121313"
       id="path4"
       style="fill:#0078fa;fill-opacity:1" /></g><g
     id="g7" /><g
     id="g9" /><g
     id="g11" /><g
     id="g13" /><g
     id="g15" /><g
     id="g17" /></svg>