<?xml version="1.0" encoding="UTF-8" standalone="no"?>
<!-- Generator: Adobe Illustrator 16.0.0, SVG Export Plug-In . SVG Version: 6.00 Build 0)  -->

<svg
   xmlns:dc="http://purl.org/dc/elements/1.1/"
   xmlns:cc="http://creativecommons.org/ns#"
   xmlns:rdf="http://www.w3.org/1999/02/22-rdf-syntax-ns#"
   xmlns:svg="http://www.w3.org/2000/svg"
   xmlns="http://www.w3.org/2000/svg"
   xmlns:sodipodi="http://sodipodi.sourceforge.net/DTD/sodipodi-0.dtd"
   xmlns:inkscape="http://www.inkscape.org/namespaces/inkscape"
   version="1.1"
   id="Capa_1"
   x="0px"
   y="0px"
   width="612px"
   height="612px"
   viewBox="0 0 612 612"
   style="enable-background:new 0 0 612 612;"
   xml:space="preserve"
   sodipodi:docname="more.svg"
   inkscape:version="0.92.4 5da689c313, 2019-01-14"><metadata
   id="metadata42"><rdf:RDF><cc:Work
       rdf:about=""><dc:format>image/svg+xml</dc:format><dc:type
         rdf:resource="http://purl.org/dc/dcmitype/StillImage" /></cc:Work></rdf:RDF></metadata><defs
   id="defs40" /><sodipodi:namedview
   pagecolor="#ffffff"
   bordercolor="#666666"
   borderopacity="1"
   objecttolerance="10"
   gridtolerance="10"
   guidetolerance="10"
   inkscape:pageopacity="0"
   inkscape:pageshadow="2"
   inkscape:window-width="1920"
   inkscape:window-height="1019"
   id="namedview38"
   showgrid="false"
   inkscape:zoom="1.2954453"
   inkscape:cx="309.08774"
   inkscape:cy="306"
   inkscape:window-x="0"
   inkscape:window-y="0"
   inkscape:window-maximized="1"
   inkscape:current-layer="g5" />
<g
   id="g5">
	<g
   id="more"
   transform="translate(-2.3158064,-18.526449)"
   style="fill:#890620;fill-opacity:1">
		<path
   d="M 561,76.5 H 178.5 c -17.85,0 -30.6,10.2 -40.8,22.95 L 0,306 137.7,512.55 c 10.2,12.75 25.5,22.95 43.35,22.95 H 561 c 28.05,0 51,-22.95 51,-51 v -357 c 0,-28.05 -22.95,-51 -51,-51 z M 229.5,344.25 c -20.4,0 -38.25,-17.85 -38.25,-38.25 0,-20.4 17.85,-38.25 38.25,-38.25 20.4,0 38.25,17.85 38.25,38.25 0,20.4 -17.85,38.25 -38.25,38.25 z m 127.5,0 c -20.4,0 -38.25,-17.85 -38.25,-38.25 0,-20.4 17.85,-38.25 38.25,-38.25 20.4,0 38.25,17.85 38.25,38.25 0,20.4 -17.85,38.25 -38.25,38.25 z m 127.5,0 c -20.4,0 -38.25,-17.85 -38.25,-38.25 0,-20.4 17.85,-38.25 38.25,-38.25 20.4,0 38.25,17.85 38.25,38.25 0,20.4 -17.85,38.25 -38.25,38.25 z"
   id="path2"
   inkscape:connector-curvature="0"
   style="fill:#890620;fill-opacity:1" />
	</g>
</g>
<g
   id="g7">
</g>
<g
   id="g9">
</g>
<g
   id="g11">
</g>
<g
   id="g13">
</g>
<g
   id="g15">
</g>
<g
   id="g17">
</g>
<g
   id="g19">
</g>
<g
   id="g21">
</g>
<g
   id="g23">
</g>
<g
   id="g25">
</g>
<g
   id="g27">
</g>
<g
   id="g29">
</g>
<g
   id="g31">
</g>
<g
   id="g33">
</g>
<g
   id="g35">
</g>
</svg>